<!DOCTYPE svg PUBLIC "-//W3C//DTD SVG 1.1//EN" "http://www.w3.org/Graphics/SVG/1.1/DTD/svg11.dtd">

<!-- Uploaded to: SVG Repo, www.svgrepo.com, Transformed by: SVG Repo Mixer Tools -->
<svg version="1.1" id="designs" xmlns="http://www.w3.org/2000/svg" xmlns:xlink="http://www.w3.org/1999/xlink" width="800px" height="800px" viewBox="0 0 32 32" xml:space="preserve" fill="#000000">

<g id="SVGRepo_bgCarrier" stroke-width="0"/>

<g id="SVGRepo_tracerCarrier" stroke-linecap="round" stroke-linejoin="round"/>

<g id="SVGRepo_iconCarrier"> <style type="text/css"> .sketchy_een{fill:#5C7CFA;} </style> <path class="sketchy_een" d="M26.343,27.076c-0.035-0.723-0.023-1.447-0.017-2.171c0.006-0.769-0.006-1.538-0.027-2.307 c-0.012-0.401-0.043-0.8-0.048-1.201c-0.008-0.395-0.012-0.791-0.019-1.186c-0.016-0.812-0.016-1.622-0.037-2.433 c-0.012-0.436-0.037-0.872-0.027-1.308c0.01-0.417,0.01-0.831,0.012-1.247c0.004-0.789-0.039-1.577-0.054-2.365 c-0.008-0.42-0.017-0.843-0.048-1.261c-0.023-0.33-0.064-0.653-0.074-0.982c-0.017-0.634-0.054-1.265-0.047-1.898 c0.01-0.734,0.052-1.469,0.089-2.203c0.023-0.482-0.422-0.887-0.887-0.887c-0.103,0-0.196,0.027-0.286,0.059 c-0.097-0.038-0.2-0.06-0.315-0.075c-0.459-0.058-0.918-0.044-1.379-0.071c-0.11-0.007-0.22-0.01-0.331-0.01 c-0.497,0-0.994,0.066-1.485,0.145c-0.006-0.338-0.012-0.677-0.024-1.016c-0.016-0.457-0.37-0.839-0.839-0.839 c-0.015,0-0.028,0.008-0.042,0.009c-0.121-0.072-0.255-0.125-0.405-0.131c-0.165-0.006-0.323,0.002-0.486,0.016 c-0.201,0.019-0.403,0.015-0.602,0.031c-0.217,0.014-0.434,0.046-0.649,0.07c-0.086,0.01-0.174,0.021-0.263,0.027 c-0.058-0.11-0.11-0.224-0.169-0.333c-0.124-0.229-0.262-0.43-0.422-0.633c-0.159-0.202-0.37-0.358-0.585-0.496 c-0.231-0.146-0.492-0.281-0.763-0.323C15.873,2.017,15.636,2,15.398,2c-0.083,0-0.166,0.002-0.249,0.006 c-0.287,0.014-0.579,0.049-0.85,0.144c-0.358,0.126-0.692,0.277-0.986,0.517c-0.207,0.168-0.374,0.399-0.515,0.62 c-0.148,0.229-0.264,0.472-0.368,0.721c-0.028,0-0.055,0-0.083,0c-0.395,0-0.792-0.011-1.189-0.011 c-0.094,0-0.181,0.026-0.267,0.055c-0.01,0-0.019-0.006-0.029-0.006c-0.496,0-0.831,0.395-0.864,0.864 C9.981,5.129,9.976,5.35,9.968,5.571C9.934,5.565,9.904,5.55,9.869,5.549C9.8,5.546,9.73,5.545,9.659,5.545 c-0.147,0-0.296,0.005-0.441,0.011C8.99,5.568,8.759,5.562,8.531,5.568C8.226,5.576,7.922,5.599,7.618,5.621 C7.223,5.648,6.826,5.663,6.429,5.69C6.22,5.706,6.036,5.764,5.884,5.917c-0.075,0.074-0.132,0.164-0.17,0.261 C5.631,6.308,5.57,6.452,5.576,6.614c0.066,1.707,0.18,3.413,0.151,5.122c-0.029,1.671-0.01,3.341-0.043,5.011 c-0.016,0.806,0.027,1.612,0.06,2.416c0.037,0.858,0.054,1.718,0.068,2.577c0.014,0.852,0.037,1.705,0.043,2.557 c0.006,0.769-0.027,1.534-0.066,2.301c-0.017,0.37-0.029,0.74-0.047,1.11c-0.017,0.347-0.004,0.7-0.043,1.044 c0.001-0.004,0.001-0.009,0.002-0.013c-0.018,0.186-0.006,0.353,0.097,0.53c0.034,0.058,0.086,0.102,0.133,0.15 c0.134,0.28,0.418,0.473,0.747,0.481c0.444,0.014,0.887,0.02,1.331,0.02c0.409,0.002,0.815,0.021,1.222,0.031 c0.746,0.016,1.49,0.023,2.235,0.037c1.602,0.025,3.206,0.018,4.806-0.044c1.594-0.062,3.188-0.06,4.783-0.11 c0.715-0.023,1.432-0.048,2.144-0.023c0.25,0.007,0.5,0.025,0.75,0.031c0.097,0.002,0.194,0.002,0.293,0.002 c0.192-0.002,0.385-0.003,0.576,0.014c0.073,0.01,0.146,0.02,0.219,0.028c0.091,0.011,0.189-0.014,0.282-0.052 c0.08,0.025,0.159,0.051,0.249,0.051c0.469,0,0.854-0.389,0.856-0.856C26.428,28.377,26.376,27.725,26.343,27.076z M12.691,5.679 c0.128-0.006,0.256-0.02,0.382-0.044c0.105-0.02,0.211-0.062,0.296-0.126c0.074-0.039,0.136-0.089,0.186-0.151 c0.143-0.165,0.145-0.192,0.227-0.39c0.057-0.135,0.089-0.276,0.136-0.414c0.075-0.156,0.164-0.306,0.264-0.449 c0.052-0.061,0.106-0.119,0.165-0.173c0.102-0.066,0.211-0.123,0.321-0.175c0.126-0.045,0.254-0.081,0.384-0.105 c0.228-0.023,0.462-0.033,0.69-0.018c0.055,0.013,0.11,0.028,0.164,0.047c0.074,0.037,0.144,0.078,0.213,0.124 c0.056,0.049,0.108,0.101,0.157,0.156c0.085,0.128,0.152,0.267,0.215,0.406c0.062,0.15,0.123,0.299,0.19,0.446 c0.025,0.056,0.052,0.112,0.081,0.167c0.107,0.194,0.25,0.324,0.428,0.449c0.294,0.209,0.668,0.142,0.996,0.093 c0.199-0.029,0.398-0.065,0.597-0.096c0.303-0.035,0.607-0.058,0.911-0.085c0.03,0.604,0.06,1.208,0.064,1.812 c0.002,0.356,0.004,0.711,0.007,1.066c-0.037-0.005-0.07-0.022-0.108-0.023c-0.504-0.008-1.005-0.021-1.509-0.039 c-0.821-0.027-1.643-0.02-2.466-0.023c-0.771-0.006-1.544-0.02-2.317-0.012c-0.603,0.008-1.201-0.03-1.799-0.089 c0.006-0.378,0.008-0.756,0.011-1.136c0.004-0.285,0.027-0.567,0.054-0.852c0.011-0.11,0.018-0.221,0.027-0.332 C12.002,5.704,12.346,5.696,12.691,5.679z M24.171,28.286c-0.254-0.004-0.504-0.017-0.757-0.031 c-0.647-0.035-1.306,0.01-1.953,0.031c-0.796,0.023-1.588,0.062-2.385,0.076c-0.827,0.014-1.654,0.021-2.481,0.041 c-0.817,0.02-1.635,0.035-2.452,0.031c-0.79-0.004-1.583-0.012-2.373-0.006c-1.475,0.013-2.943-0.091-4.415-0.162 c0.006-0.399,0.023-0.798,0.037-1.196c0.027-0.744,0.089-1.486,0.093-2.229c0.004-0.856-0.031-1.714-0.05-2.569 c-0.021-0.834-0.019-1.669-0.045-2.504c-0.045-1.635-0.099-3.27-0.091-4.907c0.008-1.652,0.048-3.307,0.017-4.959 C7.3,8.987,7.292,8.071,7.274,7.155c0.105-0.01,0.209-0.021,0.313-0.029c0.304-0.023,0.61-0.008,0.912,0 c0.457,0.009,0.914-0.002,1.37,0.025C9.893,7.152,9.914,7.14,9.937,7.139c-0.005,0.323-0.01,0.646-0.004,0.969 c-0.152-0.165-0.366-0.274-0.59-0.274c-0.446,0-0.777,0.362-0.794,0.794c-0.033,0.81-0.023,1.618-0.016,2.427 c0.006,0.81,0.017,1.618,0.041,2.427c0.023,0.777,0.031,1.552,0.056,2.329c0.025,0.78,0.062,1.559,0.081,2.34 c0.033,1.393,0.074,2.788,0.054,4.18c-0.008,0.537-0.014,1.073-0.012,1.608c0,0.223-0.004,0.443-0.006,0.667 c-0.002,0.229-0.017,0.461,0.002,0.689c0,0.046,0.027,0.085,0.034,0.129c-0.106,0.141-0.177,0.308-0.177,0.485 c0,0.217,0.087,0.428,0.24,0.581c0.167,0.167,0.354,0.215,0.581,0.24c0.428,0.046,0.858,0.08,1.29,0.091 c0.407,0.014,0.812,0.006,1.218,0.014c0.372,0.008,0.744,0.044,1.116,0.058c0.416,0.016,0.835,0.023,1.251,0.025 c0.38,0.002,0.759-0.002,1.139-0.006c0.449-0.004,0.899-0.008,1.348-0.006c0.804,0.004,1.61,0.027,2.414,0.018 c0.558-0.008,1.116-0.02,1.676-0.033c0.196-0.004,0.391-0.004,0.589-0.004c0.296,0.002,0.593,0.002,0.887-0.016 c0.388-0.021,0.705-0.286,0.774-0.662c0.126-0.141,0.227-0.343,0.209-0.53c-0.023-0.264-0.047-0.527-0.072-0.791 c-0.027-0.294-0.027-0.589-0.037-0.885c-0.021-0.732-0.025-1.464-0.027-2.196c0-0.777,0.025-1.556-0.029-2.331 c-0.056-0.792-0.05-1.588-0.077-2.381c-0.023-0.641-0.064-1.282-0.095-1.923c-0.033-0.639-0.031-1.277-0.025-1.914 c0.008-0.635,0.002-1.272,0.008-1.908c0.008-0.686,0.019-1.371-0.004-2.057c-0.014-0.42-0.341-0.773-0.773-0.773 c-0.409,0-0.794,0.353-0.775,0.773c0.037,0.821,0.064,1.641,0.074,2.462c0.008,0.774,0,1.549,0.012,2.324 c0.014,0.802,0.052,1.6,0.097,2.402c0.043,0.784,0.039,1.571,0.06,2.355c0.017,0.633,0.048,1.267,0.041,1.9 c-0.006,0.629-0.019,1.259-0.025,1.889c-0.004,0.554-0.023,1.108-0.031,1.662c-0.004,0.261,0.019,0.521,0.037,0.782 c0.004,0.07,0.008,0.14,0.012,0.21c-0.517,0.011-1.034,0.022-1.551,0.026c-0.804,0.008-1.608,0.027-2.414,0.021 c-0.837-0.008-1.674-0.02-2.511-0.02c-0.817,0-1.635,0-2.452-0.023c-0.261-0.009-0.525-0.025-0.786-0.035 c-0.161-0.006-0.322-0.004-0.482-0.004c-0.108,0-0.215,0-0.322-0.002c-0.298-0.005-0.596-0.026-0.894-0.055 c0.034-0.436,0.029-0.875,0.025-1.312c-0.002-0.583-0.021-1.168-0.025-1.751c-0.006-0.759-0.004-1.519-0.025-2.278 c-0.021-0.748-0.039-1.494-0.054-2.241c-0.014-0.736-0.072-1.47-0.097-2.207c-0.025-0.728-0.056-1.455-0.076-2.183 c-0.033-1.312,0.004-2.62,0.066-3.929c0.075,0.116,0.166,0.216,0.287,0.287c0.136,0.079,0.281,0.118,0.438,0.118 c0.81,0.103,1.617,0.101,2.431,0.083c0.757-0.017,1.517-0.013,2.274-0.019c0.837-0.006,1.674-0.01,2.509,0.023 c0.291,0.012,0.583,0.052,0.874,0.054c0.244,0,0.488,0.004,0.732-0.003c0.21-0.006,0.4-0.091,0.546-0.224 C20.32,9.672,20.448,9.72,20.59,9.72c0.446,0,0.821-0.374,0.819-0.822c0-0.31-0.008-0.62-0.002-0.93 c0.003-0.19-0.003-0.381-0.008-0.571c0.03-0.004,0.058,0,0.088-0.005c0.376-0.07,0.753-0.13,1.13-0.187 c0.343-0.033,0.678,0,1.022,0.002c0.107,0.002,0.215,0,0.324,0c0.098-0.001,0.198,0.001,0.298,0.002 c-0.007,0.661,0,1.321-0.006,1.982c-0.008,0.73,0.062,1.458,0.087,2.188c0.016,0.407,0.041,0.814,0.047,1.221 c0.006,0.409,0.004,0.817,0.023,1.224c0.041,0.806,0.056,1.61,0.068,2.417c0.025,1.631,0.029,3.264,0.081,4.895 c0.027,0.808,0.068,1.614,0.076,2.421c0.006,0.674-0.006,1.351-0.004,2.026c0.004,0.649,0.029,1.298,0.064,1.945 c0.014,0.255,0.017,0.508,0.018,0.763c-0.082,0-0.164-0.006-0.246-0.006C24.368,28.288,24.268,28.288,24.171,28.286z M12.487,14.715 c-0.157-0.159-0.246-0.374-0.246-0.597s0.089-0.438,0.246-0.597c0.134-0.132,0.35-0.249,0.548-0.249 c0.016,0,0.032,0.001,0.048,0.002c0.599,0.06,1.199,0.089,1.8,0.103c0.248,0.007,0.496-0.002,0.744-0.012 c0.221-0.008,0.442-0.016,0.664-0.014c0.486,0.006,0.972,0.039,1.459,0.033c0.356-0.003,0.715-0.037,1.071-0.019 c0.432,0.021,0.792,0.345,0.792,0.792c0,0.434-0.36,0.788-0.792,0.792c-0.843,0.008-1.685,0.021-2.53,0.023 c-0.469,0-0.938,0.027-1.408,0.029c-0.601,0.004-1.201,0.01-1.8-0.042C12.853,14.941,12.656,14.883,12.487,14.715z M19.615,16.439 c0.149,0.149,0.232,0.353,0.232,0.562c0,0.445-0.36,0.783-0.794,0.796c-0.186,0.006-0.37-0.005-0.556-0.019 c-0.263-0.02-0.521-0.008-0.785,0c-0.477,0.014-0.959,0.021-1.437,0.015c-0.126,0-0.252,0-0.376,0 c-0.145,0.002-0.291,0.002-0.436-0.001c-0.265-0.004-0.529-0.021-0.792-0.016c-0.635,0.01-1.271,0.041-1.906,0.042 c-0.448,0.002-0.821-0.376-0.821-0.823c0-0.439,0.366-0.821,0.808-0.821c0.004,0,0.009,0,0.013,0 c0.643,0.008,1.288,0.058,1.931,0.058c0.267,0,0.535-0.016,0.802-0.018c0.273-0.002,0.544,0,0.817-0.002 c0.477-0.004,0.953-0.011,1.43-0.002c0.262,0.004,0.523,0.004,0.786-0.004c0.172-0.005,0.347-0.015,0.521,0 C19.27,16.226,19.456,16.28,19.615,16.439z M19.612,20.162c0,0.208-0.083,0.409-0.229,0.556c-0.138,0.135-0.358,0.248-0.558,0.23 c-0.378-0.035-0.773-0.041-1.155-0.027c-0.455,0.018-0.909,0.01-1.366,0.01c-0.531-0.002-1.062-0.01-1.592,0.008 c-0.537,0.018-1.071,0.058-1.606,0.085c-0.434,0.021-0.794-0.38-0.794-0.796c0-0.445,0.36-0.779,0.794-0.794 c0.754-0.027,1.507-0.021,2.263-0.017c0.335,0.004,0.67,0.006,1.007,0.004c0.815,0,1.633-0.029,2.448-0.044c0.004,0,0.009,0,0.013,0 C19.263,19.375,19.612,19.744,19.612,20.162z"/> </g>

</svg>