<!DOCTYPE svg PUBLIC "-//W3C//DTD SVG 1.1//EN" "http://www.w3.org/Graphics/SVG/1.1/DTD/svg11.dtd">

<!-- Uploaded to: SVG Repo, www.svgrepo.com, Transformed by: SVG Repo Mixer Tools -->
<svg version="1.1" id="designs" xmlns="http://www.w3.org/2000/svg" xmlns:xlink="http://www.w3.org/1999/xlink" width="800px" height="800px" viewBox="0 0 32 32" xml:space="preserve" fill="#000000">

<g id="SVGRepo_bgCarrier" stroke-width="0"/>

<g id="SVGRepo_tracerCarrier" stroke-linecap="round" stroke-linejoin="round"/>

<g id="SVGRepo_iconCarrier"> <style type="text/css"> .sketchy_een{fill:#5C7CFA;} </style> <path class="sketchy_een" d="M6.657,11.196c-0.467,0-0.857,0.39-0.857,0.857c0,0.467,0.39,0.857,0.857,0.857 c0.467,0,0.857-0.39,0.857-0.857C7.515,11.586,7.125,11.196,6.657,11.196z M8.28,19.795c-0.004-0.035-0.009-0.07-0.014-0.106 c0.004,0.032,0.008,0.064,0.013,0.096c-0.001-0.008-0.002-0.015-0.003-0.023c0.009,0.067,0.018,0.134,0.027,0.201 C8.295,19.906,8.288,19.85,8.28,19.795z M8.4,20.725c0.002,0.012,0.003,0.024,0.005,0.036c-0.003-0.028-0.007-0.056-0.011-0.084 C8.396,20.693,8.398,20.709,8.4,20.725z M30.037,24.697c0.035,0.321,0.081,0.642,0.085,0.968c0.004,0.294-0.065,0.621-0.237,0.863 c-0.195,0.282-0.487,0.552-0.832,0.623c-0.4,0.083-0.804,0.036-1.165-0.166c-0.341-0.193-0.65-0.487-0.875-0.808 c-0.096-0.138-0.174-0.288-0.251-0.44c-0.093,0.159-0.197,0.311-0.308,0.457c-0.183,0.242-0.369,0.479-0.623,0.65 c-0.648,0.436-1.656,0.438-2.215-0.138c-0.209-0.213-0.371-0.481-0.424-0.78c-0.034-0.199-0.059-0.402-0.077-0.603 c-0.03-0.349-0.032-0.696-0.032-1.045c0-0.614-0.03-1.228-0.055-1.842c-0.15-0.003-0.299-0.009-0.449-0.008 c-0.095,0-0.189,0.002-0.284,0c-0.333-0.004-0.666-0.012-0.999-0.023c-0.836-0.028-1.669-0.063-2.505-0.095 c-0.812-0.03-1.624-0.03-2.436-0.03c-0.73,0-1.459,0.01-2.189,0.016c0.02,0.399,0.04,0.798,0.05,1.196 c0.006,0.313,0.002,0.627-0.006,0.94c-0.004,0.27-0.004,0.544-0.037,0.812c-0.03,0.246-0.051,0.502-0.122,0.741 c-0.106,0.365-0.27,0.682-0.536,0.956c-0.217,0.221-0.546,0.351-0.844,0.414c-0.459,0.096-1.021,0.018-1.368-0.325 c-0.135-0.133-0.236-0.29-0.328-0.454c-0.051,0.068-0.102,0.136-0.156,0.199c-0.459,0.526-1.263,0.761-1.928,0.542 C8.532,27.2,8.18,26.948,7.994,26.609c-0.085-0.154-0.148-0.319-0.203-0.485c-0.108-0.321-0.169-0.656-0.238-0.988 c-0.075-0.351-0.126-0.708-0.187-1.062c-0.274-1.561-0.469-3.134-0.678-4.705c0.008,0.067,0.018,0.136,0.026,0.205 c-0.092-0.677-0.206-1.35-0.301-2.026c-0.06-0.007-0.119-0.011-0.179-0.019c-0.223-0.03-0.441-0.081-0.662-0.126 C5.055,17.3,4.56,17.091,4.109,16.821c-0.24-0.144-0.455-0.327-0.674-0.499c-0.179-0.14-0.359-0.28-0.52-0.439 c-0.344-0.337-0.646-0.702-0.941-1.08C1.982,14.814,1.991,14.826,2,14.838c-0.144-0.183-0.29-0.363-0.396-0.572 c-0.112-0.225-0.215-0.455-0.309-0.688c-0.199-0.479-0.337-1.017-0.282-1.537c0.037-0.349,0.136-0.711,0.41-0.954 c0.152-0.134,0.313-0.246,0.499-0.327c0.354-0.156,0.725-0.251,1.084-0.39c0.257-0.118,0.505-0.247,0.739-0.406 C4.162,9.68,4.558,9.359,4.965,9.059c0.425-0.313,0.862-0.61,1.308-0.893c0.542-0.345,1.1-0.721,1.715-0.926 C8.438,7.09,8.92,7.008,9.399,7.008c0.145,0,0.29,0.007,0.434,0.023c0.666,0.073,1.315,0.225,1.967,0.371 c0.291,0.065,0.489,0.302,0.577,0.575c0.097,0.013,0.192,0.038,0.264,0.092c0.064,0.046,0.126,0.094,0.188,0.143 c0.171,0.122,0.353,0.223,0.502,0.377c0.187,0.195,0.353,0.412,0.497,0.638c0.333,0.524,0.631,1.096,0.771,1.705 c0.075,0.327,0.112,0.66,0.156,0.993c0.017,0.135,0.018,0.271,0.038,0.404c0.191,0.008,0.384,0.018,0.577,0.026 c1.179,0.051,2.363,0.047,3.548,0.043c0.497-0.002,0.995-0.004,1.494-0.002c0.43,0.002,0.861,0.004,1.291-0.008 c0.44-0.014,0.881-0.039,1.321-0.049c0.406-0.01,0.81-0.022,1.216-0.036c0.351-0.012,0.704-0.017,1.054-0.056 c0.234-0.034,0.473-0.065,0.7-0.131c0.279-0.081,0.557-0.17,0.83-0.271c0.236-0.112,0.458-0.242,0.674-0.389 c0.107-0.092,0.207-0.19,0.301-0.296c0.118-0.173,0.214-0.357,0.301-0.547c0.034-0.104,0.061-0.208,0.081-0.314 c0.013-0.173,0.016-0.348,0.026-0.522c0.01-0.138,0.022-0.28,0.047-0.416c0.043-0.231,0.207-0.509,0.432-0.603 c0.156-0.067,0.298-0.115,0.453-0.115c0.065,0,0.133,0.009,0.205,0.029c0.146,0.041,0.272,0.114,0.378,0.221 c0.205,0.227,0.372,0.524,0.501,0.802c0.14,0.302,0.258,0.607,0.359,0.922c0.091,0.28,0.173,0.563,0.25,0.847 c0.035,0.128,0.063,0.26,0.087,0.39c0.037,0.217,0.087,0.445,0.083,0.666c-0.02,0.895-0.475,1.723-1.086,2.357 c-0.371,0.386-0.808,0.704-1.255,0.999c0.125,0.819,0.253,1.638,0.358,2.46c-0.008-0.069-0.018-0.138-0.026-0.205 c0.097,0.702,0.215,1.399,0.341,2.095c0.126,0.708,0.219,1.419,0.341,2.125C29.809,23.132,29.947,23.909,30.037,24.697z M12.403,25.932c-0.02-0.009-0.04-0.017-0.061-0.026v0C12.362,25.915,12.382,25.924,12.403,25.932z M12.452,25.867 c-0.012,0.002-0.024,0.003-0.037,0.005C12.427,25.871,12.439,25.869,12.452,25.867L12.452,25.867z M12.472,25.865 c-0.006,0.001-0.013,0.002-0.019,0.002l0,0C12.459,25.866,12.465,25.866,12.472,25.865z M12.718,22.283 c-0.328-0.003-0.655-0.005-0.983-0.016c0,0.234,0.004,0.469,0,0.703c-0.008,0.39-0.012,0.784-0.034,1.175 c-0.003,0.06-0.011,0.12-0.015,0.18c0.085,0.089,0.157,0.191,0.193,0.316c0.101,0.346,0.203,0.687,0.333,1.021 c0.035,0.074,0.072,0.147,0.113,0.218c0.001,0,0.001,0,0.002,0c0.045-0.011,0.089-0.023,0.133-0.036 c0.016-0.009,0.033-0.019,0.049-0.028c0.003-0.003,0.006-0.007,0.009-0.01c0.028-0.044,0.053-0.089,0.077-0.135 c0.062-0.179,0.101-0.363,0.134-0.55C12.814,24.176,12.796,23.227,12.718,22.283z M28.592,25.647 c-0.004-0.195-0.034-0.391-0.057-0.586c-0.026-0.228-0.048-0.457-0.075-0.685c-0.094-0.662-0.209-1.32-0.307-1.979 c-0.106-0.727-0.219-1.453-0.353-2.178c-0.128-0.694-0.237-1.39-0.361-2.083c-0.146-0.81-0.298-1.618-0.426-2.43 c-0.036-0.225-0.037-0.42,0.081-0.623c0.098-0.165,0.257-0.285,0.437-0.348c0.046-0.047,0.087-0.098,0.143-0.135 c0.102-0.068,0.201-0.139,0.299-0.211c0.142-0.113,0.28-0.229,0.414-0.349c0.147-0.132,0.277-0.28,0.402-0.433 c0.129-0.178,0.243-0.36,0.343-0.557c0.049-0.132,0.091-0.264,0.122-0.401c0.006-0.11,0.004-0.217-0.006-0.326 c-0.015-0.089-0.031-0.178-0.048-0.267c-0.093,0.132-0.197,0.256-0.316,0.369c-0.252,0.242-0.538,0.459-0.844,0.629 c-0.485,0.27-1.011,0.471-1.541,0.633c-0.477,0.148-0.978,0.197-1.472,0.193c-0.798-0.008-1.602,0.022-2.401,0.051 c-0.881,0.032-1.76,0.024-2.641,0.024c-0.836-0.002-1.671-0.002-2.507,0.004c-0.897,0.008-1.792,0.051-2.688,0.023 c-0.018,0-0.033-0.01-0.051-0.011c-0.03,0.254-0.062,0.508-0.121,0.755c-0.101,0.424-0.246,0.845-0.479,1.216 c-0.187,0.303-0.408,0.578-0.688,0.798c-0.171,0.136-0.349,0.284-0.538,0.396c-0.219,0.132-0.457,0.252-0.706,0.31 c-0.118,0.028-0.237,0.045-0.355,0.063c-0.246,0.038-0.481,0.059-0.729,0.033c-0.152-0.018-0.302-0.043-0.449-0.075 c-0.593-0.126-1.131-0.406-1.602-0.782c-0.861-0.694-1.035-1.857-1.035-2.894c0-0.373,0.024-0.745,0.032-1.117 c0.012-0.446,0.022-0.891,0.041-1.336c0.018-0.451,0.363-0.83,0.828-0.83c0.436,0,0.853,0.378,0.83,0.83 c-0.028,0.575-0.061,1.151-0.087,1.726c-0.018,0.449-0.038,0.899,0.005,1.348c0.036,0.194,0.083,0.387,0.15,0.574 c0.058,0.118,0.122,0.231,0.194,0.34c0.05,0.052,0.102,0.101,0.156,0.148c0.149,0.104,0.304,0.198,0.467,0.278 c0.185,0.067,0.375,0.115,0.568,0.153c0.148,0.009,0.294,0.001,0.441-0.013c0.092-0.017,0.18-0.038,0.268-0.066 c0.202-0.102,0.389-0.227,0.574-0.358c0.071-0.063,0.136-0.13,0.198-0.202c0.108-0.156,0.2-0.318,0.285-0.489 c0.121-0.328,0.198-0.663,0.255-1.008c0.036-0.336,0.057-0.673,0.066-1.013c0.007-0.301-0.028-0.601-0.068-0.9 c-0.054-0.367-0.151-0.712-0.283-1.058c-0.153-0.332-0.347-0.65-0.563-0.943c-0.067-0.08-0.137-0.157-0.214-0.228 c-0.108-0.079-0.215-0.16-0.321-0.243c-0.031-0.023-0.06-0.046-0.088-0.07c-0.006-0.005-0.013-0.01-0.019-0.015 c0.004,0.003,0.008,0.006,0.012,0.009c-0.074-0.064-0.13-0.138-0.177-0.221c-0.083,0.003-0.166,0.007-0.25-0.013 c-0.492-0.119-0.979-0.264-1.477-0.351C9.556,8.694,9.257,8.69,8.95,8.716c-0.214,0.042-0.417,0.1-0.621,0.175 c-1.057,0.498-2.05,1.153-2.975,1.861c-0.455,0.347-0.899,0.709-1.419,0.954C3.63,11.85,3.32,11.982,3.001,12.084 c-0.139,0.045-0.278,0.088-0.415,0.139h0c-0.002,0.057-0.002,0.114,0,0.172c0.044,0.222,0.112,0.435,0.194,0.647 c0.095,0.21,0.198,0.421,0.329,0.611c0.397,0.489,0.789,0.976,1.28,1.378c0.146,0.109,0.293,0.218,0.445,0.319 c0.148,0.101,0.312,0.183,0.475,0.259c0.316,0.115,0.644,0.18,0.976,0.23c0.259,0.028,0.517,0.04,0.776,0.051 c0.471,0.02,0.863,0.378,0.863,0.863c0,0.027-0.014,0.053-0.017,0.08c0.002,0.019,0.01,0.035,0.012,0.055 c0.019,0.211,0.039,0.423,0.061,0.632c0.097,0.724,0.192,1.447,0.287,2.169c-0.004-0.026-0.007-0.052-0.011-0.078 c0.007,0.05,0.014,0.1,0.02,0.15c0-0.001,0-0.003-0.001-0.004c0.042,0.305,0.08,0.612,0.12,0.919 c-0.004-0.027-0.008-0.053-0.011-0.08c0.006,0.043,0.012,0.085,0.018,0.128c0.003,0.026,0.007,0.051,0.01,0.077 c-0.002-0.014-0.003-0.027-0.005-0.041c0.122,0.885,0.241,1.771,0.393,2.653c0.135,0.778,0.256,1.575,0.525,2.322 c0.009,0.016,0.019,0.032,0.028,0.048c0.002,0.002,0.004,0.004,0.007,0.007c0.009,0.005,0.018,0.01,0.026,0.015 c0.02,0,0.04,0,0.06,0c0.031-0.008,0.061-0.016,0.092-0.026c0.027-0.014,0.053-0.029,0.079-0.044 c0.03-0.028,0.059-0.058,0.086-0.088c0.093-0.138,0.178-0.282,0.252-0.43c0.052-0.162,0.09-0.328,0.118-0.496 c0.054-0.479,0.059-0.965,0.065-1.447c0.008-0.532,0.028-1.066,0.022-1.598c-0.002-0.254,0.133-0.472,0.325-0.617 c0.134-0.26,0.389-0.461,0.69-0.461c0.013,0,0.026,0,0.039,0.001c0.814,0.045,1.63,0.081,2.444,0.113 c0.78,0.03,1.565,0.024,2.347,0.02c0.816-0.006,1.63-0.012,2.446,0.02c0.83,0.033,1.66,0.042,2.489,0.059 c0.422,0.008,0.846,0.006,1.267,0.006c0.215,0,0.43,0.002,0.645,0c0.221-0.002,0.451-0.02,0.672,0.002 c0.15,0.002,0.288,0.04,0.416,0.115c0.074,0.044,0.122,0.115,0.178,0.177c0.316,0.117,0.541,0.417,0.55,0.771 c0.016,0.672,0.012,1.344,0.018,2.016c0.006,0.527,0.004,1.052,0.057,1.577c0.007,0.037,0.015,0.074,0.024,0.11 c0.013,0,0.026,0,0.039-0.001c0.043-0.01,0.086-0.023,0.128-0.036c0.015-0.008,0.03-0.016,0.044-0.025 c0.098-0.092,0.185-0.194,0.271-0.299c0.077-0.103,0.15-0.207,0.21-0.319c0.049-0.154,0.082-0.308,0.109-0.468 c0.069-0.574,0.101-1.154,0.126-1.73c0.028-0.654,0.059-1.309,0.081-1.965c0.016-0.42,0.341-0.773,0.775-0.773 c0.402,0,0.796,0.353,0.773,0.773c-0.045,0.744-0.061,1.487-0.111,2.23c0.186,0.094,0.336,0.255,0.376,0.467 c0.091,0.486,0.262,0.954,0.44,1.414c0.091,0.189,0.188,0.372,0.307,0.544c0.074,0.083,0.15,0.163,0.232,0.236 C28.574,25.636,28.583,25.642,28.592,25.647z"/> </g>

</svg>